<svg xmlns="http://www.w3.org/2000/svg" enable-background="new 0 0 55 55" viewBox="0 0 55 55"><path d="M48.76,12.98h-1.5v-1.5c0-1.93-1.57-3.5-3.5-3.5H6.24c-1.93,0-3.5,1.57-3.5,3.5v27.03c0,1.93,1.57,3.5,3.5,3.5h1.5v1.5
		c0,1.93,1.57,3.5,3.5,3.5h37.52c1.93,0,3.5-1.57,3.5-3.5V16.48C52.26,14.56,50.69,12.98,48.76,12.98z M38.22,40.02l-6.57-6.57
		l5.85-5.85l7.76,7.76v3.16c0,0.83-0.67,1.5-1.5,1.5H38.22z M6.24,9.98h37.52c0.83,0,1.5,0.67,1.5,1.5v21.05l-7.05-7.05
		c-0.39-0.39-1.02-0.39-1.41,0l-6.55,6.55L18.39,20.18c-0.39-0.39-1.02-0.39-1.41,0L4.74,32.41V11.48
		C4.74,10.66,5.41,9.98,6.24,9.98z M4.74,38.52v-3.28L17.68,22.3L35.4,40.02H6.24C5.41,40.02,4.74,39.34,4.74,38.52z M50.26,43.52
		c0,0.83-0.67,1.5-1.5,1.5H11.24c-0.83,0-1.5-0.67-1.5-1.5v-1.5h34.02c1.93,0,3.5-1.57,3.5-3.5V14.98h1.5c0.83,0,1.5,0.67,1.5,1.5
		V43.52z"/><path d="M33.66,21.25c2.4,0,4.36-1.96,4.36-4.36s-1.96-4.36-4.36-4.36c-2.4,0-4.36,1.96-4.36,4.36S31.26,21.25,33.66,21.25z
		 M33.66,14.52c1.3,0,2.36,1.06,2.36,2.36s-1.06,2.36-2.36,2.36c-1.3,0-2.36-1.06-2.36-2.36S32.36,14.52,33.66,14.52z"/></svg>