<svg width="150" height="28" viewBox="0 0 150 28" fill="none" xmlns="http://www.w3.org/2000/svg">
<g clip-path="url(#clip0)">
<path d="M9.09131 27.7368C7.40068 27.7372 5.726 27.41 4.15983 26.7733C2.60841 26.1411 1.19536 25.212 0 24.0382L2.61948 20.9941C3.52597 21.8483 4.56424 22.5509 5.69433 23.0747C6.78263 23.5737 7.96438 23.8362 9.16159 23.8449C10.5995 23.8449 11.6908 23.552 12.4356 22.9664C12.7949 22.6914 13.0837 22.3349 13.2779 21.9262C13.4722 21.5176 13.5664 21.0686 13.5528 20.6163C13.5669 20.1604 13.4603 19.7088 13.2438 19.3073C13.059 18.9352 12.7848 18.6148 12.4458 18.3746C12.0694 18.0663 11.6551 17.8075 11.213 17.6044C10.7483 17.3731 10.2319 17.1422 9.66382 16.9118L6.20241 15.4095C5.56089 15.139 4.94242 14.8168 4.35311 14.4461C3.75893 14.055 3.21759 13.5889 2.74247 13.0595C2.24018 12.5011 1.83396 11.8634 1.54035 11.1721C1.24588 10.384 1.10233 9.54755 1.1172 8.70637C1.10741 7.74693 1.31832 6.79809 1.73363 5.93315C2.16622 5.06476 2.76868 4.29201 3.50533 3.66068C4.28889 2.997 5.19046 2.48685 6.16288 2.15694C7.26847 1.78968 8.42713 1.60762 9.59207 1.6181C11.0506 1.61708 12.4935 1.91872 13.8295 2.50395C15.1396 3.03475 16.3311 3.82064 17.3348 4.81595L15.0624 7.66678C14.2895 7.02817 13.434 6.49675 12.519 6.08689C11.5948 5.68841 10.597 5.48886 9.59061 5.5012C8.38409 5.5012 7.42113 5.77111 6.70171 6.31091C5.98229 6.82339 5.62258 7.54232 5.62258 8.4677C5.61128 8.91122 5.71789 9.3498 5.93153 9.73864C6.17609 10.0896 6.47228 10.4016 6.81006 10.664C7.2283 10.9391 7.66576 11.1838 8.11907 11.3961C8.60714 11.6011 9.1079 11.8061 9.62136 12.0111L13.0505 13.4372C13.7647 13.7291 14.4483 14.0906 15.0917 14.5164C15.6877 14.9082 16.2204 15.3886 16.6715 15.9411C17.1443 16.4982 17.5097 17.1381 17.7492 17.8284C18.0211 18.6083 18.152 19.4303 18.1358 20.2561C18.1418 21.2523 17.9315 22.238 17.5193 23.145C17.0943 24.062 16.4765 24.8766 15.7081 25.5331C14.8643 26.2398 13.898 26.7857 12.8573 27.1438C11.644 27.551 10.371 27.7515 9.09131 27.7368Z" fill="#121112"/>
<path d="M30.0439 27.7369C28.7936 27.7474 27.5523 27.525 26.3834 27.081C25.2729 26.632 24.2641 25.9642 23.4169 25.1175C22.5483 24.2384 21.8669 23.1924 21.4139 22.0426C20.9318 20.6959 20.6967 19.2734 20.7198 17.8432C20.6986 16.4228 20.947 15.0112 21.4519 13.6834C21.8903 12.5304 22.5442 11.4715 23.3788 10.5632C24.1785 9.73078 25.1336 9.0632 26.1901 8.59818C27.2091 8.1398 28.3131 7.90084 29.4304 7.89682C30.5941 7.87243 31.7496 8.09604 32.8201 8.55279C33.7639 8.96497 34.5953 9.59707 35.2448 10.3962C35.9366 11.2352 36.4494 12.2069 36.7515 13.2515C37.0953 14.4273 37.264 15.6474 37.2523 16.8725C37.2536 17.2847 37.2277 17.6965 37.1747 18.1053C37.1589 18.4162 37.1203 18.7255 37.059 19.0307H25.0378C25.2428 20.7243 25.8333 22.0338 26.8095 22.9592C27.811 23.8582 29.08 24.3077 30.6164 24.3077C31.3877 24.3155 32.1551 24.1983 32.8889 23.9607C33.6311 23.6928 34.3415 23.3441 35.0076 22.9211L36.5099 25.6944C35.5726 26.3044 34.5634 26.7962 33.5053 27.1586C32.3924 27.545 31.2221 27.7405 30.0439 27.7369ZM24.9982 16.0232H33.3955C33.3955 14.559 33.0744 13.4159 32.4321 12.594C31.8161 11.7458 30.8532 11.3221 29.5432 11.3231C28.4357 11.3143 27.3695 11.7431 26.5767 12.5164C25.7294 13.3149 25.2032 14.4848 24.9982 16.0261V16.0232Z" fill="#121112"/>
<path d="M41.0933 27.274V8.3593H44.7538L45.0613 10.9012H45.2165C46.0451 10.0952 46.9622 9.38544 47.9502 8.78539C49.0051 8.18411 50.2035 7.88047 51.4174 7.90686C53.4468 7.90686 54.9237 8.56185 55.8482 9.87183C56.7716 11.1564 57.2338 13.0057 57.2348 15.4197V27.2799H52.8041V15.9864C52.8041 14.4197 52.5732 13.3157 52.1115 12.6743C51.6498 12.033 50.8923 11.7128 49.839 11.7138C49.0624 11.7005 48.2989 11.9148 47.6427 12.3303C46.8798 12.8324 46.1699 13.4108 45.524 14.0566V27.2696L41.0933 27.274Z" fill="#121112"/>
<path d="M68.9294 27.7365C67.8234 27.7365 66.8858 27.5696 66.1166 27.2358C65.4005 26.9234 64.7673 26.448 64.2673 25.8477C63.7903 25.1993 63.4378 24.468 63.2277 23.6909C63.0139 22.7693 62.9102 21.8256 62.9188 20.8796V11.86H60.2231V8.55239L63.1516 8.35911L63.6933 3.19775H67.3905V8.35911H72.2063V11.86H67.3876V20.8796C67.3876 23.0876 68.2739 24.1917 70.0466 24.1917C70.3837 24.1915 70.7198 24.1527 71.0481 24.076C71.3788 24.0081 71.7013 23.9051 72.0101 23.7685L72.7817 27.0425C72.2045 27.2392 71.6139 27.3938 71.0144 27.5052C70.3309 27.6641 69.6311 27.7418 68.9294 27.7365Z" fill="#121112"/>
<path d="M75.7981 27.2739V8.35919H80.2288V27.2739H75.7981ZM78.0324 5.04567C77.2379 5.04567 76.5829 4.81481 76.0675 4.35309C75.8145 4.12582 75.6145 3.84586 75.4814 3.53293C75.3484 3.22 75.2855 2.8817 75.2973 2.54186C75.2856 2.20225 75.3485 1.86421 75.4816 1.55153C75.6147 1.23885 75.8147 0.959145 76.0675 0.73209C76.6132 0.259884 77.3108 0 78.0324 0C78.7541 0 79.4517 0.259884 79.9974 0.73209C80.2505 0.958955 80.4506 1.23863 80.5837 1.55135C80.7168 1.86407 80.7796 2.20221 80.7676 2.54186C80.7798 2.88175 80.7171 3.22017 80.584 3.53316C80.4509 3.84616 80.2507 4.12607 79.9974 4.35309C79.484 4.81579 78.829 5.04664 78.0324 5.04567Z" fill="#121112"/>
<path d="M93.5854 27.7364C92.3351 27.7467 91.0938 27.5243 89.9249 27.0804C88.8149 26.6313 87.8066 25.9635 86.9598 25.1169C86.0912 24.2376 85.4094 23.1917 84.9553 22.0421C84.4745 20.6951 84.2399 19.2727 84.2627 17.8427C84.2415 16.4223 84.4899 15.0107 84.9949 13.6829C85.4333 12.5302 86.0867 11.4714 86.9203 10.5626C87.7208 9.73052 88.6763 9.063 89.7331 8.59764C90.7512 8.14238 91.8536 7.90594 92.969 7.90361C94.1326 7.87957 95.288 8.10317 96.3586 8.55958C97.3024 8.96913 98.1343 9.59872 98.7848 10.3957C99.4755 11.2349 99.9873 12.2066 100.289 13.2509C100.632 14.4268 100.801 15.6469 100.789 16.8719C100.791 17.2841 100.765 17.696 100.712 18.1048C100.694 18.4172 100.654 18.7279 100.592 19.0346H88.5851C88.7901 20.7282 89.3807 22.0377 90.3568 22.9631C91.3583 23.8621 92.6273 24.3116 94.1638 24.3116C94.9355 24.3194 95.7034 24.2022 96.4377 23.9646C97.1798 23.6966 97.8903 23.348 98.5564 22.925L100.059 25.6982C99.1213 26.3082 98.1122 26.8001 97.0541 27.1624C95.9385 27.548 94.7657 27.7421 93.5854 27.7364ZM88.5383 16.0227H96.9311C96.9311 14.5585 96.61 13.4154 95.9677 12.5935C95.3508 11.7452 94.3878 11.3216 93.0788 11.3225C91.9713 11.3137 90.9052 11.7426 90.1123 12.5159C89.2679 13.3144 88.7432 14.4843 88.5383 16.0256V16.0227Z" fill="#121112"/>
<path d="M104.634 27.2739V8.35918H108.295L108.602 11.7137H108.749C109.416 10.4808 110.226 9.54324 111.176 8.90094C112.127 8.23326 113.103 7.89941 114.105 7.89941C115.004 7.89941 115.723 8.02778 116.262 8.2845L115.497 12.1339C115.194 12.0392 114.886 11.9624 114.573 11.904C114.23 11.847 113.882 11.8211 113.534 11.8264C112.788 11.8264 112.007 12.1193 111.191 12.705C110.368 13.2702 109.662 14.2717 109.072 15.7095V27.2666L104.634 27.2739Z" fill="#121112"/>
<path d="M123.335 17.2958C123.335 17.0069 123.45 16.7298 123.654 16.5256C123.859 16.3213 124.136 16.2065 124.425 16.2065H133.356C133.645 16.2065 133.922 16.3213 134.127 16.5256C134.331 16.7298 134.446 17.0069 134.446 17.2958V26.081C134.446 26.3699 134.331 26.647 134.127 26.8512C133.922 27.0555 133.645 27.1703 133.356 27.1703H124.425C124.136 27.1703 123.859 27.0555 123.654 26.8512C123.45 26.647 123.335 26.3699 123.335 26.081V17.2958Z" stroke="#121112" stroke-width="0.75"/>
<path d="M128.888 1.58545C132.197 1.58545 134.879 4.26789 134.879 7.57685C134.879 10.8858 132.197 13.5683 128.888 13.5683C125.579 13.5683 122.896 10.8858 122.896 7.57685C122.896 4.26789 125.579 1.58545 128.888 1.58545Z" stroke="#121112" stroke-width="0.75"/>
<path d="M143.53 27.5653H143.53C142.743 27.5655 141.964 27.4107 141.237 27.1096C140.51 26.8086 139.849 26.3673 139.293 25.8109C138.737 25.2545 138.295 24.594 137.994 23.867C137.693 23.14 137.538 22.3609 137.539 21.574V21.5739C137.539 19.9849 138.17 18.461 139.293 17.3374C140.417 16.2138 141.941 15.5825 143.53 15.5825C144.317 15.5825 145.096 15.7375 145.823 16.0386C146.55 16.3397 147.21 16.781 147.767 17.3374C148.323 17.8937 148.764 18.5542 149.065 19.2811C149.366 20.008 149.521 20.7871 149.521 21.5739C149.521 22.3607 149.366 23.1398 149.065 23.8667C148.764 24.5936 148.323 25.2541 147.767 25.8105C147.21 26.3668 146.55 26.8082 145.823 27.1093C145.096 27.4104 144.317 27.5653 143.53 27.5653Z" stroke="#121112" stroke-width="0.75"/>
<path d="M144.585 2.48307L144.585 2.48321L149.481 11.4278C149.481 11.4279 149.481 11.428 149.481 11.428C149.577 11.604 149.626 11.8018 149.623 12.0022C149.619 12.2027 149.564 12.3989 149.462 12.5716C149.36 12.7443 149.215 12.8876 149.041 12.9874C148.868 13.0871 148.671 13.1401 148.471 13.1411H138.7H138.699C138.498 13.1412 138.301 13.0891 138.126 12.9898C137.952 12.8905 137.806 12.7474 137.703 12.5747C137.6 12.402 137.544 12.2055 137.541 12.0047C137.537 11.8038 137.586 11.6054 137.682 11.4289L137.682 11.4288L142.55 2.48307C142.55 2.48297 142.55 2.48286 142.55 2.48276C142.65 2.30032 142.797 2.14809 142.976 2.04201C143.155 1.93588 143.359 1.87988 143.567 1.87988C143.775 1.87988 143.98 1.93588 144.159 2.04201C144.338 2.14815 144.485 2.30049 144.585 2.48307Z" stroke="#121112" stroke-width="0.75"/>
</g>
<defs>
<clipPath id="clip0">
<rect width="150" height="27.9401" fill="white"/>
</clipPath>
</defs>
</svg>
